<svg version="1.1" width="256" height="256" xmlns="http://www.w3.org/2000/svg">
  <rect width="98%" height="98%" x="1%"  y="1%"  rx="10%" ry="10%"  fill="#e7d872"/>
  <rect width="90%" height="90%" x="5%"  y="5%"  rx="7.5%"  ry="7.5%"   fill="#0b1412"/>
  <rect width="30%" height="30%" x="9%"  y="60%" rx="5%"  ry="5%"   fill="#2c589a"/>
  <rect width="15%" height="15%" x="9%"  y="60%" fill="#2c589a"/>
  <rect width="15%" height="15%" x="24%" y="60%" fill="#2c589a"/>
  <rect width="15%" height="15%" x="24%" y="75%" fill="#2c589a"/>

  <rect width="30%" height="47%" x="9%"  y="9%"  rx="5%"  ry="5%"   fill="#eae8e9"/>
  <rect width="15%" height="24%" x="24%" y="9%"  fill="#eae8e9"/>
  <rect width="15%" height="24%" x="24%" y="32%" fill="#eae8e9"/>
  <rect width="15%" height="24%" x="9%"  y="32%" fill="#eae8e9"/>

  <rect width="48%" height="47%" x="43%" y="9%"  rx="5%"  ry="5%"   fill="#c64027"/>
  <rect width="24%" height="24%" x="43%" y="9%"  fill="#c64027"/>
  <rect width="24%" height="24%" x="43%" y="32%" fill="#c64027"/>
  <rect width="24%" height="24%" x="67%" y="32%" fill="#c64027"/>

  <rect width="48%" height="30%" x="43%" y="60%" rx="5%"  ry="5%"   fill="#eae8e9"/>
  <rect width="24%" height="15%" x="43%" y="60%" fill="#eae8e9"/>
  <rect width="24%" height="15%" x="67%" y="60%" fill="#eae8e9"/>
  <rect width="24%" height="15%" x="43%" y="75%" fill="#eae8e9"/>
</svg>